<svg xmlns="http://www.w3.org/2000/svg" width="272" height="54" viewBox="0 0 272 54" role="img" aria-label="1,000 terms  glossary"><title>1,000 terms  glossary</title><defs><path id="s700g57" d="M258 0V606H240L146 384H12L155 700H386V0Z"/><path id="s700g85" d="M79 -147V-79H118Q164 -79 164 -33V-1H147Q107 -1 80.5 23Q54 47 54 84Q54 124 80.5 149Q107 174 147 174Q188 174 214 148.5Q240 123 240 80V-35Q240 -147 128 -147Z"/><path id="s700g56" d="M324 -14Q200 -14 125 54.5Q50 123 50 262V438Q50 573 125 643.5Q200 714 324 714Q449 714 523.5 643.5Q598 573 598 438V262Q598 123 523.5 54.5Q449 -14 324 -14ZM324 100Q399 100 434.5 141Q470 182 470 258V444Q470 521 430.5 560.5Q391 600 324 600Q255 600 216.5 559Q178 518 178 444V258Q178 179 214.5 139.5Q251 100 324 100Z"/><path id="s700g49" d="M260 0Q211 0 180.5 30.5Q150 61 150 112V392H26V496H150V650H276V496H412V392H276V134Q276 104 304 104H400V0Z"/><path id="s700g34" d="M296 -14Q222 -14 165.5 17.5Q109 49 77.5 106.5Q46 164 46 242V254Q46 332 77 389.5Q108 447 164 478.5Q220 510 294 510Q367 510 421 477.5Q475 445 505 387.5Q535 330 535 254V211H174Q176 160 212 128Q248 96 300 96Q353 96 378 119Q403 142 416 170L519 116Q505 90 478.5 59.5Q452 29 408 7.5Q364 -14 296 -14ZM175 305H407Q403 348 372.5 374Q342 400 293 400Q242 400 212 374Q182 348 175 305Z"/><path id="s700g47" d="M70 0V496H194V440H212Q223 470 248.5 484Q274 498 308 498H368V386H306Q258 386 227 360.5Q196 335 196 282V0Z"/><path id="s700g42" d="M70 0V496H194V442H212Q225 467 255 485.5Q285 504 334 504Q387 504 419 483.5Q451 463 468 430H486Q503 462 534 483Q565 504 622 504Q668 504 705.5 484.5Q743 465 765.5 425.5Q788 386 788 326V0H662V317Q662 358 641 378.5Q620 399 582 399Q539 399 515.5 371.5Q492 344 492 293V0H366V317Q366 358 345 378.5Q324 399 286 399Q243 399 219.5 371.5Q196 344 196 293V0Z"/><path id="s700g48" d="M276 -14Q179 -14 117 28Q55 70 42 148L158 178Q165 143 181.5 123Q198 103 222.5 94.5Q247 86 276 86Q320 86 341 101.5Q362 117 362 140Q362 163 342 175.5Q322 188 278 196L250 201Q198 211 155 228.5Q112 246 86 277Q60 308 60 357Q60 431 114 470.5Q168 510 256 510Q339 510 394 473Q449 436 466 376L349 340Q341 378 316.5 394Q292 410 256 410Q220 410 201 397.5Q182 385 182 363Q182 339 202 327.5Q222 316 256 310L284 305Q340 295 385.5 278.5Q431 262 457.5 231.5Q484 201 484 149Q484 71 427.5 28.5Q371 -14 276 -14Z"/><path id="s700g36" d="M46 246V262Q46 340 77 395.5Q108 451 159.5 480.5Q211 510 272 510Q340 510 375 486Q410 462 426 436H444V496H568V-88Q568 -139 538 -169.5Q508 -200 458 -200H126V-90H414Q442 -90 442 -60V69H424Q414 53 396 36.5Q378 20 348 9Q318 -2 272 -2Q211 -2 159.5 27.5Q108 57 77 112.5Q46 168 46 246ZM308 108Q366 108 405 145Q444 182 444 249V259Q444 327 405.5 363.5Q367 400 308 400Q250 400 211 363.5Q172 327 172 259V249Q172 182 211 145Q250 108 308 108Z"/><path id="s700g41" d="M70 0V700H196V0Z"/><path id="s700g44" d="M306 -14Q232 -14 173 16Q114 46 80 103Q46 160 46 240V256Q46 336 80 393Q114 450 173 480Q232 510 306 510Q380 510 439 480Q498 450 532 393Q566 336 566 256V240Q566 160 532 103Q498 46 439 16Q380 -14 306 -14ZM306 98Q364 98 402 135.5Q440 173 440 243V253Q440 323 402.5 360.5Q365 398 306 398Q248 398 210 360.5Q172 323 172 253V243Q172 173 210 135.5Q248 98 306 98Z"/><path id="s700g30" d="M224 -14Q171 -14 129 4.5Q87 23 62.5 58.5Q38 94 38 145Q38 196 62.5 230.5Q87 265 130.5 282.5Q174 300 230 300H366V328Q366 363 344 385.5Q322 408 274 408Q227 408 204 386.5Q181 365 174 331L58 370Q70 408 96.5 439.5Q123 471 167.5 490.5Q212 510 276 510Q374 510 431 461Q488 412 488 319V134Q488 104 516 104H556V0H472Q435 0 411 18Q387 36 387 66V67H368Q364 55 350 35.5Q336 16 306 1Q276 -14 224 -14ZM246 88Q299 88 332.5 117.5Q366 147 366 196V206H239Q204 206 184 191Q164 176 164 149Q164 122 185 105Q206 88 246 88Z"/><path id="s700g54" d="M124 -200V-90H394Q422 -90 422 -60V65H404Q396 48 379 31Q362 14 333 3Q304 -8 259 -8Q201 -8 157.5 18.5Q114 45 90 92Q66 139 66 200V496H192V210Q192 154 219.5 126Q247 98 298 98Q356 98 388 136.5Q420 175 420 244V496H546V-88Q546 -139 516 -169.5Q486 -200 436 -200Z"/></defs><rect x="4.0" y="4.0" width="268.4" height="50.0" rx="9" fill="#ff5a1f"/><rect x="1.0" y="1.0" width="266.4" height="48.0" rx="8" fill="#f3efe6" stroke="#101113" stroke-width="2"/><g fill="#101113" transform="translate(18.00 32.00) scale(0.02000 -0.02000)"><use href="#s700g57" x="0"/><use href="#s700g85" x="442"/><use href="#s700g56" x="714"/><use href="#s700g56" x="1352"/><use href="#s700g56" x="1990"/><use href="#s700g49" x="2872"/><use href="#s700g34" x="3300"/><use href="#s700g47" x="3867"/><use href="#s700g42" x="4253"/><use href="#s700g48" x="5097"/><use href="#s700g36" x="6099"/><use href="#s700g41" x="6727"/><use href="#s700g44" x="6983"/><use href="#s700g48" x="7585"/><use href="#s700g48" x="8099"/><use href="#s700g30" x="8609"/><use href="#s700g47" x="9177"/><use href="#s700g54" x="9563"/></g><path transform="translate(232.4 16.0) scale(0.7500)" d="M4 12h15M13 6l6 6-6 6" fill="none" stroke="#101113" stroke-width="3.20" stroke-linecap="square"/></svg>
