<svg xmlns="http://www.w3.org/2000/svg" width="800" height="150" viewBox="0 0 800 150" role="img" aria-label="MoneyPrinterTurbo"><title>MoneyPrinterTurbo</title><defs><path id="s500-50" d="M73 0V700H351Q415 700 465.5 674.5Q516 649 544.5 602.5Q573 556 573 491V478Q573 413 543.5 366Q514 319 464 294Q414 269 351 269H181V0ZM181 367H340Q397 367 431 397Q465 427 465 479V489Q465 542 431 572Q397 602 340 602H181Z"/><path id="s500-68" d="M76 0V700H179V423H195Q205 442 223.5 460Q242 478 272.5 489.5Q303 501 350 501Q406 501 449.5 476Q493 451 518 405.5Q543 360 543 296V0H440V288Q440 352 408 382.5Q376 413 320 413Q256 413 217.5 371Q179 329 179 249V0Z"/><path id="s500-6e" d="M76 0V493H177V419H193Q207 449 243 475Q279 501 350 501Q406 501 449.5 476Q493 451 518 405.5Q543 360 543 296V0H440V288Q440 352 408 382.5Q376 413 320 413Q256 413 217.5 371Q179 329 179 249V0Z"/><path id="s500-6f" d="M307 -14Q233 -14 175.5 16.5Q118 47 85 104Q52 161 52 239V254Q52 332 85 388.5Q118 445 175.5 476Q233 507 307 507Q381 507 439 476Q497 445 530 388.5Q563 332 563 254V239Q563 161 530 104Q497 47 439 16.5Q381 -14 307 -14ZM307 78Q375 78 417.5 121.5Q460 165 460 242V251Q460 328 418 371.5Q376 415 307 415Q240 415 197.5 371.5Q155 328 155 251V242Q155 165 197.5 121.5Q240 78 307 78Z"/><path id="s500-74" d="M261 0Q216 0 189.5 27Q163 54 163 99V406H27V493H163V656H266V493H413V406H266V117Q266 87 294 87H397V0Z"/><path id="s500-79" d="M133 -200V-110H408Q436 -110 436 -80V72H420Q411 52 392.5 33.5Q374 15 343 3Q312 -9 265 -9Q209 -9 165 16Q121 41 96 87Q71 133 71 196V493H174V204Q174 140 206 109.5Q238 79 295 79Q358 79 396.5 121Q435 163 435 243V493H538V-101Q538 -146 511.5 -173Q485 -200 439 -200Z"/><path id="s600-4d" d="M69 0V700H294L430 81H447L584 700H808V0H692V613H675L539 0H339L203 613H186V0Z"/><path id="s600-50" d="M69 0V700H352Q418 700 468 674Q518 648 547 600.5Q576 553 576 488V474Q576 410 546.5 362Q517 314 466.5 288Q416 262 352 262H190V0ZM190 371H340Q392 371 423.5 399Q455 427 455 476V486Q455 535 424 563Q393 591 340 591H190Z"/><path id="s600-54" d="M234 0V591H25V700H563V591H354V0Z"/><path id="s600-62" d="M365 -14Q295 -14 257.5 10.5Q220 35 203 65H186V0H73V700H188V432H205Q216 452 235.5 469Q255 486 286.5 497Q318 508 365 508Q426 508 477 478.5Q528 449 559 392Q590 335 590 255V239Q590 159 559 102Q528 45 476.5 15.5Q425 -14 365 -14ZM331 86Q393 86 434 126.5Q475 167 475 242V252Q475 328 434.5 368Q394 408 331 408Q269 408 227.5 368Q186 328 186 252V242Q186 167 227.5 126.5Q269 86 331 86Z"/><path id="s600-65" d="M299 -14Q225 -14 168.5 17.5Q112 49 80.5 106.5Q49 164 49 241V253Q49 331 80 388Q111 445 167 476.5Q223 508 296 508Q368 508 422 476.5Q476 445 506 388Q536 331 536 255V214H165Q167 156 206 121Q245 86 302 86Q358 86 385 110.5Q412 135 426 166L521 117Q507 90 480.5 59.5Q454 29 410 7.5Q366 -14 299 -14ZM166 301H419Q415 350 381.5 379Q348 408 295 408Q240 408 207 379Q174 350 166 301Z"/><path id="s600-69" d="M73 0V494H188V0ZM130 557Q99 557 76.5 577.5Q54 598 54 632Q54 666 76.5 686.5Q99 707 130 707Q163 707 184.5 686.5Q206 666 206 632Q206 598 184.5 577.5Q163 557 130 557Z"/><path id="s600-6e" d="M73 0V494H186V425H203Q216 453 250 478Q284 503 353 503Q410 503 454 477Q498 451 522.5 405Q547 359 547 296V0H432V287Q432 347 402.5 376.5Q373 406 319 406Q258 406 223 365.5Q188 325 188 250V0Z"/><path id="s600-6f" d="M307 -14Q233 -14 174.5 16.5Q116 47 82.5 103.5Q49 160 49 239V255Q49 334 82.5 391Q116 448 174.5 478Q233 508 307 508Q381 508 439 478Q497 448 530.5 391Q564 334 564 255V239Q564 160 530.5 103.5Q497 47 439 16.5Q381 -14 307 -14ZM307 88Q370 88 410 128.5Q450 169 450 242V252Q450 325 410 365.5Q370 406 307 406Q244 406 204 365.5Q164 325 164 252V242Q164 169 204 128.5Q244 88 307 88Z"/><path id="s600-72" d="M73 0V494H186V437H203Q214 468 240 482Q266 496 302 496H362V394H300Q250 394 219 367.5Q188 341 188 286V0Z"/><path id="s600-74" d="M261 0Q213 0 184.5 28.5Q156 57 156 106V399H27V494H156V653H271V494H413V399H271V125Q271 95 299 95H398V0Z"/><path id="s600-75" d="M262 -8Q205 -8 161 17.5Q117 43 93 89.5Q69 136 69 198V494H183V207Q183 147 212.5 118Q242 89 296 89Q357 89 392.5 129Q428 169 428 244V494H542V0H430V69H413Q400 42 365.5 17Q331 -8 262 -8Z"/><path id="s600-79" d="M128 -200V-100H401Q429 -100 429 -70V68H412Q404 50 386 32.5Q368 15 338 3.5Q308 -8 262 -8Q205 -8 161 17.5Q117 43 93 89.5Q69 136 69 198V494H183V207Q183 147 212.5 118Q242 89 296 89Q357 89 392.5 129Q428 169 428 244V494H542V-94Q542 -143 514 -171.5Q486 -200 438 -200Z"/><path id="s700-31" d="M258 0V606H240L146 384H12L155 700H386V0Z"/><path id="s700-32" d="M42 0V84Q42 157 66 205.5Q90 254 135.5 285.5Q181 317 247 337L314 358Q351 370 376 387.5Q401 405 414.5 430Q428 455 428 487V491Q428 541 394 570.5Q360 600 301 600Q243 600 207.5 568.5Q172 537 172 478V460H44V476Q44 552 78 605Q112 658 170.5 686Q229 714 301 714Q373 714 431 686.5Q489 659 522.5 609.5Q556 560 556 493V483Q556 416 528.5 369.5Q501 323 454 293.5Q407 264 347 245L283 225Q240 212 216 196.5Q192 181 182.5 162.5Q173 144 173 118V114H550V0Z"/><path id="s700-36" d="M312 -14Q232 -14 173 16Q114 46 82 99Q50 152 50 221V460Q50 545 84.5 601.5Q119 658 179.5 686Q240 714 318 714Q396 714 453.5 688Q511 662 542.5 613Q574 564 574 496H444Q444 538 415 569Q386 600 318 600Q251 600 214.5 565Q178 530 178 468V396H196Q213 416 248 434Q283 452 350 452Q411 452 462.5 426Q514 400 546 350.5Q578 301 578 231V219Q578 150 545 97.5Q512 45 452 15.5Q392 -14 312 -14ZM314 100Q377 100 413.5 133Q450 166 450 221V229Q450 266 433.5 293Q417 320 386.5 335Q356 350 314 350Q273 350 242 335Q211 320 194.5 293Q178 266 178 229V221Q178 166 214.5 133Q251 100 314 100Z"/><path id="s700-6b" d="M70 0V700H196V313H214L378 496H542L313 256L550 0H388L214 197H196V0Z"/></defs><g transform="translate(0 0)"><rect x="1" y="1" width="784" height="134" rx="20" fill="#101113" stroke="#2b2e35" stroke-width="2"/><path transform="translate(34 48) scale(1.67)" fill="#4b8bbe" d="M14.25.18l.9.2.73.26.59.3.45.32.34.34.25.34.16.33.1.3.04.26.02.2-.01.13V8.5l-.05.63-.13.55-.21.46-.26.38-.3.31-.33.25-.35.19-.35.14-.33.1-.3.07-.26.04-.21.02H8.77l-.69.05-.59.14-.5.22-.41.27-.33.32-.27.35-.2.36-.15.37-.1.35-.07.32-.04.27-.02.21v3.06H3.17l-.21-.03-.28-.07-.32-.12-.35-.18-.36-.26-.36-.36-.35-.46-.32-.59-.28-.73-.21-.88-.14-1.05-.05-1.23.06-1.22.16-1.04.24-.87.32-.71.36-.57.4-.44.42-.33.42-.24.4-.16.36-.1.32-.05.24-.01h.16l.06.01h8.16v-.83H6.18l-.01-2.75-.02-.37.05-.34.11-.31.17-.28.25-.26.31-.23.38-.2.44-.18.51-.15.58-.12.64-.1.71-.06.77-.04.84-.02 1.27.05zm-6.3 1.98l-.23.33-.08.41.08.41.23.34.33.22.41.09.41-.09.33-.22.23-.34.08-.41-.08-.41-.23-.33-.33-.22-.41-.09-.41.09zm13.09 3.95l.28.06.32.12.35.18.36.27.36.35.35.47.32.59.28.73.21.88.14 1.04.05 1.23-.06 1.23-.16 1.04-.24.86-.32.71-.36.57-.4.45-.42.33-.42.24-.4.16-.36.09-.32.05-.24.02-.16-.01h-8.22v.82h5.84l.01 2.76.02.36-.05.34-.11.31-.17.29-.25.25-.31.24-.38.2-.44.17-.51.15-.58.13-.64.09-.71.07-.77.04-.84.01-1.27-.04-1.07-.14-.9-.2-.73-.25-.59-.3-.45-.33-.34-.34-.25-.34-.16-.33-.1-.3-.04-.25-.02-.2.01-.13v-5.34l.05-.64.13-.54.21-.46.26-.38.3-.32.33-.24.35-.2.35-.14.33-.1.3-.06.26-.04.21-.02.13-.01h5.84l.69-.05.59-.14.5-.21.41-.28.33-.32.27-.35.2-.36.15-.36.1-.35.07-.32.04-.28.02-.21V6.07h2.09l.14.01zm-6.47 14.25l-.23.33-.08.41.08.41.23.33.33.23.41.08.41-.08.33-.23.23-.33.08-.41-.08-.41-.23-.33-.33-.23-.41-.08-.41.08z"/><path transform="translate(642.25 54) scale(1.17)" fill="#ff5a1f" d="M12 1.8l3.1 6.4 7 1-5.1 4.9 1.2 7L12 17.8l-6.2 3.3 1.2-7L1.9 9.2l7-1z"/><g fill="#f3efe6" transform="translate(678.25 79.9) scale(0.034 -0.034)"><use href="#s700-31" x="0"/><use href="#s700-32" x="437.29"/><use href="#s700-36" x="1016.59"/><use href="#s700-6b" x="1619.88"/></g><g fill="#f3efe6" transform="translate(98 64) scale(0.034 -0.034)"><use href="#s600-4d" x="0"/><use href="#s600-6f" x="866.24"/><use href="#s600-6e" x="1467.47"/><use href="#s600-65" x="2070.71"/><use href="#s600-79" x="2639.94"/><use href="#s600-50" x="3243.18"/><use href="#s600-72" x="3834.41"/><use href="#s600-69" x="4213.65"/><use href="#s600-6e" x="4462.88"/><use href="#s600-74" x="5052.12"/><use href="#s600-65" x="5479.35"/><use href="#s600-72" x="6048.59"/><use href="#s600-54" x="6427.82"/><use href="#s600-75" x="6931.06"/><use href="#s600-72" x="7534.29"/><use href="#s600-62" x="7913.53"/><use href="#s600-6f" x="8540.76"/></g><g fill="#a4a9b2" transform="translate(98 98) scale(0.021 -0.021)"><use href="#s500-50" x="0"/><use href="#s500-79" x="603"/><use href="#s500-74" x="1217"/><use href="#s500-68" x="1675"/><use href="#s500-6f" x="2290"/><use href="#s500-6e" x="2905"/></g></g></svg>
