<svg xmlns="http://www.w3.org/2000/svg" width="800" height="150" viewBox="0 0 800 150" role="img" aria-label="Ghost"><title>Ghost</title><defs><path id="s500-53" d="M311 -14Q232 -14 171 14Q110 42 75.5 96.5Q41 151 41 229V254H148V229Q148 155 192.5 118Q237 81 311 81Q386 81 424 112.5Q462 144 462 194Q462 227 444 248Q426 269 393 281.5Q360 294 314 305L277 314Q210 330 160.5 353.5Q111 377 84 416Q57 455 57 516Q57 578 87.5 622Q118 666 172 690Q226 714 299 714Q372 714 429.5 689Q487 664 520 615Q553 566 553 492V456H446V492Q446 537 427.5 565Q409 593 376 606Q343 619 299 619Q235 619 199.5 592.5Q164 566 164 519Q164 487 179.5 466.5Q195 446 225 433Q255 420 300 410L337 401Q405 386 457 362.5Q509 339 539 299Q569 259 569 196Q569 133 537.5 86Q506 39 448 12.5Q390 -14 311 -14Z"/><path id="s500-54" d="M240 0V602H25V700H563V602H348V0Z"/><path id="s500-63" d="M305 -14Q234 -14 176.5 16Q119 46 85.5 103Q52 160 52 240V253Q52 333 85.5 389.5Q119 446 176.5 476.5Q234 507 305 507Q376 507 426 481Q476 455 506.5 412Q537 369 546 317L446 296Q441 329 425 356Q409 383 380 399Q351 415 307 415Q264 415 229.5 395.5Q195 376 175 339.5Q155 303 155 251V242Q155 190 175 153Q195 116 229.5 97Q264 78 307 78Q372 78 406 111.5Q440 145 449 197L549 174Q537 123 506.5 80Q476 37 426 11.5Q376 -14 305 -14Z"/><path id="s500-65" d="M302 -14Q227 -14 171 17.5Q115 49 83.5 106.5Q52 164 52 240V252Q52 329 83 386.5Q114 444 169.5 475.5Q225 507 298 507Q369 507 422.5 475.5Q476 444 506 388Q536 332 536 257V218H157Q159 153 200.5 114.5Q242 76 304 76Q362 76 391.5 102Q421 128 437 162L522 118Q508 90 481.5 59Q455 28 412 7Q369 -14 302 -14ZM158 297H431Q427 353 391 384.5Q355 416 297 416Q239 416 202.5 384.5Q166 353 158 297Z"/><path id="s500-69" d="M76 0V493H179V0ZM128 560Q98 560 77.5 579.5Q57 599 57 630Q57 661 77.5 680.5Q98 700 128 700Q159 700 179 680.5Q199 661 199 630Q199 599 179 579.5Q159 560 128 560Z"/><path id="s500-70" d="M76 -200V493H177V422H193Q212 455 250.5 481Q289 507 361 507Q423 507 474.5 477Q526 447 557.5 390.5Q589 334 589 254V239Q589 159 558 102.5Q527 46 475 16Q423 -14 361 -14Q313 -14 280 -2Q247 10 227 28.5Q207 47 195 67H179V-200ZM331 76Q399 76 442 119Q485 162 485 242V251Q485 330 441.5 373Q398 416 331 416Q265 416 221.5 373Q178 330 178 251V242Q178 162 221.5 119Q265 76 331 76Z"/><path id="s500-72" d="M76 0V493H177V435H193Q205 466 231.5 480.5Q258 495 297 495H356V402H293Q243 402 211 374.5Q179 347 179 290V0Z"/><path id="s500-74" d="M261 0Q216 0 189.5 27Q163 54 163 99V406H27V493H163V656H266V493H413V406H266V117Q266 87 294 87H397V0Z"/><path id="s500-79" d="M133 -200V-110H408Q436 -110 436 -80V72H420Q411 52 392.5 33.5Q374 15 343 3Q312 -9 265 -9Q209 -9 165 16Q121 41 96 87Q71 133 71 196V493H174V204Q174 140 206 109.5Q238 79 295 79Q358 79 396.5 121Q435 163 435 243V493H538V-101Q538 -146 511.5 -173Q485 -200 439 -200Z"/><path id="s600-47" d="M312 -14Q238 -14 179.5 18.5Q121 51 86.5 113.5Q52 176 52 267V433Q52 569 128 641.5Q204 714 332 714Q460 714 529 645.5Q598 577 598 461V457H480V465Q480 505 464 537Q448 569 415 587.5Q382 606 332 606Q258 606 215.5 560.5Q173 515 173 435V265Q173 186 215.5 139Q258 92 334 92Q410 92 445 133Q480 174 480 238V250H303V352H598V0H488V69H471Q463 51 446 31.5Q429 12 397.5 -1Q366 -14 312 -14Z"/><path id="s600-68" d="M73 0V700H188V429H205Q213 446 231 463Q249 480 278.5 491Q308 502 353 502Q410 502 454 476.5Q498 451 522.5 405Q547 359 547 296V0H432V287Q432 347 402.5 376.5Q373 406 319 406Q258 406 223 365.5Q188 325 188 250V0Z"/><path id="s600-6f" d="M307 -14Q233 -14 174.5 16.5Q116 47 82.5 103.5Q49 160 49 239V255Q49 334 82.5 391Q116 448 174.5 478Q233 508 307 508Q381 508 439 478Q497 448 530.5 391Q564 334 564 255V239Q564 160 530.5 103.5Q497 47 439 16.5Q381 -14 307 -14ZM307 88Q370 88 410 128.5Q450 169 450 242V252Q450 325 410 365.5Q370 406 307 406Q244 406 204 365.5Q164 325 164 252V242Q164 169 204 128.5Q244 88 307 88Z"/><path id="s600-73" d="M277 -14Q181 -14 119 28Q57 70 44 151L150 178Q157 140 175 118Q193 96 219.5 87Q246 78 277 78Q324 78 347.5 95Q371 112 371 138Q371 165 348.5 178Q326 191 280 200L249 205Q198 215 156 232.5Q114 250 88.5 280.5Q63 311 63 358Q63 430 116.5 469Q170 508 257 508Q340 508 394 471Q448 434 464 372L358 340Q350 382 323 399.5Q296 417 257 417Q217 417 195.5 403Q174 389 174 363Q174 337 196 324Q218 311 255 305L286 299Q341 289 385.5 273Q430 257 456 227Q482 197 482 146Q482 69 426.5 27.5Q371 -14 277 -14Z"/><path id="s600-74" d="M261 0Q213 0 184.5 28.5Q156 57 156 106V399H27V494H156V653H271V494H413V399H271V125Q271 95 299 95H398V0Z"/><path id="s700-35" d="M303 -14Q221 -14 161.5 15Q102 44 70 97Q38 150 38 220V230H168V221Q168 171 201.5 135.5Q235 100 301 100Q367 100 402.5 135.5Q438 171 438 228V238Q438 294 402.5 327Q367 360 314 360Q285 360 266 352Q247 344 235 332Q223 320 215 308H60V700H538V584H188V413H206Q216 426 233 438Q250 450 277 458Q304 466 341 466Q403 466 454 440Q505 414 535.5 363.5Q566 313 566 239V227Q566 153 534.5 99Q503 45 444 15.5Q385 -14 303 -14Z"/><path id="s700-6b" d="M70 0V700H196V313H214L378 496H542L313 256L550 0H388L214 197H196V0Z"/></defs><g transform="translate(14 0)"><rect x="1" y="1" width="784" height="134" rx="20" fill="#101113" stroke="#2b2e35" stroke-width="2"/><path transform="translate(34 48) scale(1.67)" fill="#3178c6" d="M1.125 0C.502 0 0 .502 0 1.125v21.75C0 23.498.502 24 1.125 24h21.75c.623 0 1.125-.502 1.125-1.125V1.125C24 .502 23.498 0 22.875 0zm17.363 9.75c.612 0 1.154.037 1.627.111a6.38 6.38 0 0 1 1.306.34v2.458a3.95 3.95 0 0 0-.643-.361 5.093 5.093 0 0 0-.717-.26 5.453 5.453 0 0 0-1.426-.2c-.3 0-.573.028-.819.086a2.1 2.1 0 0 0-.623.242c-.17.104-.3.229-.393.374a.888.888 0 0 0-.14.49c0 .196.053.373.156.529.104.156.252.304.443.444s.423.276.696.41c.273.135.582.274.926.416.47.197.892.407 1.266.628.374.222.695.473.963.753.268.279.472.598.614.957.142.359.214.776.214 1.253 0 .657-.125 1.21-.373 1.656a3.033 3.033 0 0 1-1.012 1.085 4.38 4.38 0 0 1-1.487.596c-.566.12-1.163.18-1.79.18a9.916 9.916 0 0 1-1.84-.164 5.544 5.544 0 0 1-1.512-.493v-2.63a5.033 5.033 0 0 0 3.237 1.2c.333 0 .624-.03.872-.09.249-.06.456-.144.623-.25.166-.108.29-.234.373-.38a1.023 1.023 0 0 0-.074-1.089 2.12 2.12 0 0 0-.537-.5 5.597 5.597 0 0 0-.807-.444 27.72 27.72 0 0 0-1.007-.436c-.918-.383-1.602-.852-2.053-1.405-.45-.553-.676-1.222-.676-2.005 0-.614.123-1.141.369-1.582.246-.441.58-.804 1.004-1.089a4.494 4.494 0 0 1 1.47-.629 7.536 7.536 0 0 1 1.77-.201zm-15.113.188h9.563v2.166H9.506v9.646H6.789v-9.646H3.375z"/><path transform="translate(657.52 54) scale(1.17)" fill="#ff5a1f" d="M12 1.8l3.1 6.4 7 1-5.1 4.9 1.2 7L12 17.8l-6.2 3.3 1.2-7L1.9 9.2l7-1z"/><g fill="#f3efe6" transform="translate(693.52 79.9) scale(0.034 -0.034)"><use href="#s700-35" x="0"/><use href="#s700-35" x="585.29"/><use href="#s700-6b" x="1170.59"/></g><g fill="#f3efe6" transform="translate(98 64) scale(0.034 -0.034)"><use href="#s600-47" x="0"/><use href="#s600-68" x="649.24"/><use href="#s600-6f" x="1252.47"/><use href="#s600-73" x="1853.71"/><use href="#s600-74" x="2356.94"/></g><g fill="#a4a9b2" transform="translate(98 98) scale(0.021 -0.021)"><use href="#s500-54" x="0"/><use href="#s500-79" x="514"/><use href="#s500-70" x="1128"/><use href="#s500-65" x="1769"/><use href="#s500-53" x="2353"/><use href="#s500-63" x="2962"/><use href="#s500-72" x="3554"/><use href="#s500-69" x="3941"/><use href="#s500-70" x="4197"/><use href="#s500-74" x="4820"/></g></g></svg>
